<?xml version="1.0" encoding="utf-8"?>
<!-- Generator: Adobe Illustrator 16.0.1, SVG Export Plug-In . SVG Version: 6.00 Build 0)  -->
<!DOCTYPE svg PUBLIC "-//W3C//DTD SVG 1.1//EN" "http://www.w3.org/Graphics/SVG/1.1/DTD/svg11.dtd">
<svg version="1.1" id="Layer_1" xmlns="http://www.w3.org/2000/svg" xmlns:xlink="http://www.w3.org/1999/xlink" x="0px" y="0px"
	 width="841.89px" height="595.275px" viewBox="0 0 841.89 595.275" enable-background="new 0 0 841.89 595.275"
	 xml:space="preserve">
<path fill-rule="evenodd" clip-rule="evenodd" fill="#37A3DC" d="M309.244,194.419h33.579c3.439,0,6.253,2.814,6.253,6.253v33.579
	c0,3.44-2.814,6.254-6.253,6.254h-33.579c-3.439,0-6.253-2.814-6.253-6.254v-33.579C302.99,197.233,305.804,194.419,309.244,194.419
	z"/>
<path fill-rule="evenodd" clip-rule="evenodd" fill="#428DCC" d="M349.076,234.251v-33.579c0-1.544-0.612-3.292-1.837-4.417
	l-42.412,42.412c0.956,1.08,2.698,1.837,4.417,1.837h33.579C346.744,240.505,349.076,237.224,349.076,234.251z"/>
<polygon fill-rule="evenodd" clip-rule="evenodd" fill="#E3F2FD" points="309.626,207.968 309.626,205.664 314.235,205.664 
	314.235,201.055 316.54,201.055 316.54,205.664 337.831,205.664 337.831,226.956 342.44,226.956 342.44,229.26 337.831,229.26 
	337.831,233.869 335.527,233.869 335.527,229.26 314.235,229.26 314.235,207.968 "/>
<polygon fill-rule="evenodd" clip-rule="evenodd" fill="#202021" points="311.907,218.164 309.63,218.163 309.636,233.859 
	325.235,233.871 325.237,231.503 311.921,231.493 "/>
<rect x="316.54" y="207.968" fill-rule="evenodd" clip-rule="evenodd" fill="none" width="18.988" height="18.988"/>
<polygon fill-rule="evenodd" clip-rule="evenodd" fill="#47AE54" points="335.527,226.956 316.54,226.956 323.489,220.006 
	326.177,222.695 332.322,216.55 335.527,219.718 "/>
<path fill-rule="evenodd" clip-rule="evenodd" fill="#FFD600" d="M321.161,214.843c1.259,0,2.286-1.023,2.286-2.278
	s-1.026-2.279-2.286-2.279c-1.259,0-2.286,1.024-2.286,2.279S319.902,214.843,321.161,214.843z"/>
<path fill-rule="evenodd" clip-rule="evenodd" fill="#E3F2FD" d="M341.338,200.319l1.08-1.089c0.557-0.545,1.368-0.468,1.829-0.008
	c0.507,0.479,0.506,1.34,0.008,1.829l-1.08,1.09l0.403,0.4c0.149,0.146,0.126,0.385,0.002,0.502l-0.41,0.414
	c-0.112,0.129-0.352,0.147-0.502,0.002l-0.626-0.621l-1.392-1.381l-0.625-0.62c-0.142-0.139-0.139-0.371-0.002-0.502l0.41-0.414
	c0.154-0.146,0.375-0.132,0.502-0.002L341.338,200.319z"/>
<path fill-rule="evenodd" clip-rule="evenodd" fill="#E3F2FD" d="M342.042,202.838l-1.392-1.381l-2.021,2.038
	c-0.287,0.285-0.39,0.81-0.17,1.149l-0.576,0.581c-0.118,0.108-0.11,0.317,0.001,0.413c0.124,0.123,0.301,0.109,0.413-0.002
	l0.576-0.581c0.391,0.213,0.852,0.113,1.147-0.18L342.042,202.838z"/>
<g>
	<path fill="#202020" d="M360.114,206.164c0.374-0.066,0.901-0.117,1.45-0.117c0.71,0,2.146,0.088,2.146,1.597
		c0,0.688-0.439,1.194-0.967,1.399v0.022c0.396,0.154,0.615,0.535,0.747,1.106c0.161,0.667,0.308,1.34,0.417,1.553h-1.113
		c-0.081-0.161-0.22-0.652-0.352-1.333c-0.146-0.725-0.374-0.952-0.886-0.952h-0.366v2.285h-1.077V206.164z M361.191,208.632h0.447
		c0.615,0,0.989-0.359,0.989-0.894c0-0.725-0.542-0.864-0.938-0.864c-0.242,0-0.41,0.015-0.498,0.044V208.632z"/>
	<path fill="#202020" d="M365.368,210.009c0.029,0.696,0.527,0.974,1.113,0.974c0.403,0,0.718-0.073,0.996-0.168l0.154,0.747
		c-0.337,0.146-0.813,0.234-1.318,0.234c-1.26,0-1.978-0.791-1.978-2.058c0-1.172,0.674-2.183,1.868-2.183
		c0.989,0,1.633,0.703,1.633,2.021c0,0.161-0.007,0.315-0.029,0.432H365.368z M366.833,209.254c0.007-0.425-0.161-0.945-0.696-0.945
		c-0.52,0-0.74,0.542-0.769,0.945H366.833z"/>
	<path fill="#202020" d="M368.615,207.907c0.271-0.161,0.776-0.344,1.414-0.344c1.267,0,1.611,0.806,1.611,1.699v1.494
		c0,0.359,0.015,0.718,0.059,0.967h-0.974l-0.066-0.425h-0.022c-0.234,0.322-0.63,0.505-1.084,0.505
		c-0.754,0-1.223-0.564-1.223-1.223c0-1.047,0.93-1.538,2.227-1.538c0-0.403-0.139-0.71-0.732-0.71c-0.374,0-0.74,0.117-1.003,0.278
		L368.615,207.907z M370.585,209.738c-0.586,0-1.194,0.139-1.194,0.732c0,0.388,0.242,0.557,0.513,0.557
		c0.256,0,0.681-0.183,0.681-0.703V209.738z"/>
	<path fill="#202020" d="M375.202,208.544c-0.139-0.066-0.337-0.132-0.637-0.132c-0.681,0-1.077,0.549-1.077,1.267
		c0,0.798,0.461,1.26,1.084,1.26c0.271,0,0.483-0.051,0.659-0.132l0.117,0.813c-0.183,0.088-0.557,0.176-0.989,0.176
		c-1.194,0-1.97-0.776-1.97-2.073c0-1.223,0.791-2.161,2.139-2.161c0.352,0,0.674,0.081,0.85,0.154L375.202,208.544z"/>
	<path fill="#202020" d="M376.222,207.643v-0.747l1.069-0.315v1.062h0.901v0.798h-0.901v1.772c0,0.491,0.154,0.696,0.483,0.696
		c0.154,0,0.242-0.015,0.352-0.037l0.015,0.828c-0.146,0.059-0.41,0.095-0.725,0.095c-1.172,0-1.194-1.018-1.194-1.472v-1.882
		h-0.535v-0.798H376.222z"/>
	<path fill="#202020" d="M384.61,206.09v5.632h-1.084l-1.208-2.329c-0.3-0.579-0.63-1.274-0.864-1.89h-0.029
		c0.044,0.696,0.066,1.487,0.066,2.49v1.729h-0.981v-5.632h1.172l1.187,2.285c0.3,0.564,0.615,1.252,0.842,1.838h0.015
		c-0.066-0.718-0.095-1.516-0.095-2.432v-1.692H384.61z"/>
	<path fill="#202020" d="M385.683,207.907c0.271-0.161,0.776-0.344,1.414-0.344c1.267,0,1.611,0.806,1.611,1.699v1.494
		c0,0.359,0.015,0.718,0.059,0.967h-0.974l-0.066-0.425h-0.022c-0.234,0.322-0.63,0.505-1.084,0.505
		c-0.754,0-1.223-0.564-1.223-1.223c0-1.047,0.93-1.538,2.227-1.538c0-0.403-0.139-0.71-0.732-0.71c-0.374,0-0.74,0.117-1.003,0.278
		L385.683,207.907z M387.653,209.738c-0.586,0-1.194,0.139-1.194,0.732c0,0.388,0.242,0.557,0.513,0.557
		c0.256,0,0.681-0.183,0.681-0.703V209.738z"/>
	<path fill="#202020" d="M389.853,207.643v-0.747l1.069-0.315v1.062h0.901v0.798h-0.901v1.772c0,0.491,0.154,0.696,0.483,0.696
		c0.154,0,0.242-0.015,0.352-0.037l0.015,0.828c-0.146,0.059-0.41,0.095-0.725,0.095c-1.172,0-1.194-1.018-1.194-1.472v-1.882
		h-0.535v-0.798H389.853z"/>
	<path fill="#202020" d="M393.033,207.108c-0.344,0-0.579-0.249-0.579-0.579c0-0.337,0.242-0.579,0.579-0.579
		c0.352,0,0.586,0.242,0.586,0.579C393.619,206.881,393.37,207.108,393.033,207.108z M393.582,207.643v4.08h-1.084v-4.08H393.582z"
		/>
	<path fill="#202020" d="M396.828,207.643h1.121l-1.392,4.08h-1.047l-1.37-4.08h1.165l0.535,1.978
		c0.088,0.352,0.161,0.688,0.227,1.04h0.022c0.066-0.352,0.139-0.681,0.227-1.04L396.828,207.643z"/>
	<path fill="#202020" d="M399.328,210.009c0.029,0.696,0.527,0.974,1.113,0.974c0.403,0,0.718-0.073,0.996-0.168l0.154,0.747
		c-0.337,0.146-0.813,0.234-1.318,0.234c-1.26,0-1.978-0.791-1.978-2.058c0-1.172,0.674-2.183,1.868-2.183
		c0.989,0,1.633,0.703,1.633,2.021c0,0.161-0.007,0.315-0.029,0.432H399.328z M400.792,209.254c0.007-0.425-0.161-0.945-0.696-0.945
		c-0.52,0-0.74,0.542-0.769,0.945H400.792z"/>
	<path fill="#428DCC" d="M360.507,224.287v-9.657h1.858v9.657H360.507z"/>
	<path fill="#428DCC" d="M369.601,218.322c0.578-0.854,1.293-1.168,2.072-1.168c1.218,0,2.16,0.866,2.16,2.888v4.245h-1.821v-3.956
		c0-1.005-0.276-1.67-1.017-1.67c-0.515,0-1.093,0.402-1.093,1.381v4.245h-1.821v-4.131c0-0.829-0.264-1.495-0.992-1.495
		c-0.515,0-1.118,0.477-1.118,1.419v4.207h-1.821v-4.885c0-0.816-0.025-1.481-0.05-2.097h1.583l0.088,0.93h0.038
		c0.327-0.502,0.942-1.08,1.984-1.08c0.854,0,1.507,0.452,1.783,1.168H369.601z"/>
	<path fill="#428DCC" d="M375.521,217.744c0.465-0.276,1.331-0.59,2.424-0.59c2.172,0,2.763,1.381,2.763,2.914v2.562
		c0,0.615,0.025,1.231,0.101,1.658h-1.67l-0.113-0.729h-0.038c-0.402,0.553-1.08,0.867-1.859,0.867
		c-1.293,0-2.097-0.967-2.097-2.097c0-1.796,1.595-2.637,3.818-2.637c0-0.691-0.239-1.218-1.256-1.218
		c-0.641,0-1.269,0.201-1.721,0.478L375.521,217.744z M378.899,220.883c-1.005,0-2.047,0.239-2.047,1.256
		c0,0.666,0.415,0.955,0.879,0.955c0.439,0,1.168-0.314,1.168-1.206V220.883z"/>
	<path fill="#428DCC" d="M386.738,217.304h1.62c-0.038,0.502-0.063,1.118-0.063,2.085v3.943c0,1.369-0.125,3.906-3.529,3.906
		c-0.816,0-1.657-0.163-2.21-0.477l0.364-1.419c0.415,0.226,1.067,0.452,1.808,0.452c1.042,0,1.733-0.59,1.733-1.934v-0.515h-0.025
		c-0.352,0.553-0.979,0.892-1.746,0.892c-1.658,0-2.7-1.494-2.7-3.403c0-2.311,1.344-3.679,2.888-3.679
		c0.879,0,1.444,0.427,1.758,0.979h0.025L386.738,217.304z M386.437,220.017c0-0.892-0.54-1.407-1.168-1.407
		c-0.841,0-1.406,0.854-1.406,2.172c0,1.218,0.515,2.047,1.394,2.047c0.427,0,1.181-0.276,1.181-1.457V220.017z"/>
	<path fill="#428DCC" d="M391.375,221.348c0.05,1.193,0.904,1.67,1.909,1.67c0.691,0,1.231-0.125,1.708-0.289l0.264,1.281
		c-0.578,0.251-1.394,0.402-2.26,0.402c-2.16,0-3.391-1.356-3.391-3.529c0-2.009,1.155-3.742,3.202-3.742
		c1.695,0,2.8,1.206,2.8,3.466c0,0.276-0.013,0.54-0.05,0.741H391.375z M393.887,220.055c0.012-0.729-0.276-1.62-1.193-1.62
		c-0.892,0-1.268,0.929-1.318,1.62H393.887z"/>
	<path fill="#428DCC" d="M405.608,216.362c-0.377-0.163-0.879-0.313-1.544-0.313c-1.595,0-2.876,1.092-2.876,3.428
		c0,2.185,1.118,3.353,2.863,3.353c0.578,0,1.193-0.113,1.57-0.276l0.264,1.494c-0.364,0.176-1.143,0.364-2.135,0.364
		c-2.901,0-4.508-1.972-4.508-4.835c0-3.378,2.172-5.086,4.734-5.086c1.042,0,1.72,0.214,1.997,0.364L405.608,216.362z"/>
	<path fill="#428DCC" d="M408.814,218.51c0.326-0.904,1.08-1.369,1.733-1.369c0.176,0,0.289,0.013,0.415,0.038v1.771
		c-0.138-0.025-0.289-0.038-0.478-0.038c-0.841,0-1.481,0.565-1.481,1.758v3.617h-1.859v-4.81c0-0.867-0.025-1.557-0.05-2.185h1.595
		l0.075,1.218H408.814z"/>
	<path fill="#428DCC" d="M418.096,220.733c0,2.662-1.708,3.692-3.265,3.692c-1.884,0-3.24-1.331-3.24-3.604
		c0-2.349,1.419-3.68,3.315-3.68C416.866,217.141,418.096,218.61,418.096,220.733z M414.869,218.51c-1.03,0-1.394,1.206-1.394,2.273
		c0,1.244,0.477,2.273,1.381,2.273c0.879,0,1.356-1.042,1.356-2.286C416.213,219.678,415.823,218.51,414.869,218.51z"/>
	<path fill="#428DCC" d="M421.101,218.246h0.025c0.452-0.716,1.168-1.105,2.072-1.105c1.532,0,2.662,1.432,2.662,3.579
		c0,2.574-1.456,3.705-2.876,3.705c-0.766,0-1.355-0.352-1.657-0.816h-0.025v3.479h-1.859v-7.51c0-0.904-0.025-1.645-0.05-2.285
		h1.62L421.101,218.246z M421.302,221.461c0,1.018,0.615,1.507,1.243,1.507c0.942,0,1.432-0.93,1.432-2.186
		c0-1.243-0.477-2.147-1.394-2.147c-0.716,0-1.281,0.678-1.281,1.52V221.461z"/>
	<path fill="#428DCC" d="M429.983,224.287v-9.532c0.604-0.113,1.432-0.201,2.499-0.201c1.219,0,2.136,0.239,2.751,0.766
		c0.577,0.49,0.929,1.268,0.929,2.16c0,2.65-2.21,3.24-3.654,3.24c-0.264,0-0.489-0.013-0.678-0.05v3.617H429.983z M431.83,219.213
		c0.176,0.038,0.377,0.05,0.652,0.05c1.156,0,1.834-0.653,1.834-1.696c0-1.029-0.653-1.569-1.683-1.569
		c-0.377,0-0.641,0.038-0.804,0.075V219.213z"/>
	<path fill="#428DCC" d="M438.339,216.375c-0.59,0-0.992-0.427-0.992-0.992c0-0.578,0.415-0.992,0.992-0.992
		c0.604,0,1.005,0.414,1.005,0.992C439.344,215.986,438.917,216.375,438.339,216.375z M439.281,217.292v6.995h-1.858v-6.995H439.281
		z"/>
	<path fill="#428DCC" d="M445.398,218.836c-0.239-0.113-0.578-0.226-1.093-0.226c-1.168,0-1.846,0.942-1.846,2.172
		c0,1.369,0.791,2.16,1.858,2.16c0.465,0,0.829-0.088,1.13-0.226l0.201,1.394c-0.313,0.151-0.954,0.301-1.695,0.301
		c-2.047,0-3.378-1.331-3.378-3.554c0-2.097,1.356-3.705,3.667-3.705c0.603,0,1.155,0.138,1.456,0.264L445.398,218.836z"/>
	<path fill="#428DCC" d="M450.475,220.167l2.562,4.119h-2.21l-1.633-2.989l-0.489,0.666v2.323h-1.858V214.19h1.858v6.153h0.037
		c0.151-0.314,0.302-0.603,0.465-0.866l1.395-2.185h2.159L450.475,220.167z"/>
	<path fill="#428DCC" d="M455.148,221.348c0.05,1.193,0.904,1.67,1.909,1.67c0.69,0,1.23-0.125,1.707-0.289l0.265,1.281
		c-0.578,0.251-1.395,0.402-2.261,0.402c-2.16,0-3.391-1.356-3.391-3.529c0-2.009,1.155-3.742,3.202-3.742
		c1.695,0,2.801,1.206,2.801,3.466c0,0.276-0.013,0.54-0.051,0.741H455.148z M457.66,220.055c0.013-0.729-0.276-1.62-1.193-1.62
		c-0.892,0-1.269,0.929-1.318,1.62H457.66z"/>
	<path fill="#428DCC" d="M462.348,218.51c0.326-0.904,1.08-1.369,1.732-1.369c0.176,0,0.289,0.013,0.415,0.038v1.771
		c-0.139-0.025-0.289-0.038-0.478-0.038c-0.841,0-1.481,0.565-1.481,1.758v3.617h-1.858v-4.81c0-0.867-0.025-1.557-0.051-2.185
		h1.595l0.075,1.218H462.348z"/>
</g>
</svg>
